<?xml version="1.0" encoding="UTF-8" standalone="no"?>
<!DOCTYPE svg PUBLIC "-//W3C//DTD SVG 1.1//EN" "http://www.w3.org/Graphics/SVG/1.1/DTD/svg11.dtd">
<svg width="100%" class="calefaccion-icon" height="100%" viewBox="0 0 59 58" version="1.1" xmlns="http://www.w3.org/2000/svg" xmlns:xlink="http://www.w3.org/1999/xlink" xml:space="preserve" xmlns:serif="http://www.serif.com/" style="fill-rule:evenodd;clip-rule:evenodd;stroke-linejoin:round;stroke-miterlimit:2;">
    <g transform="matrix(1,0,0,1,-1796.35,-454.669)">
        <g transform="matrix(0.497473,0,0,0.54931,776.013,-490.556)">
            <path d="M2168.1,1747.11C2168.1,1732.56 2155.05,1720.75 2138.99,1720.75L2080.14,1720.75C2064.08,1720.75 2051.03,1732.56 2051.03,1747.11L2051.03,1799.83C2051.03,1814.37 2064.08,1826.18 2080.14,1826.18L2138.99,1826.18C2155.05,1826.18 2168.1,1814.37 2168.1,1799.83L2168.1,1747.11Z" style="fill:rgb(35,132,190);"/>
        </g>
        <g transform="matrix(0.65644,0,0,0.65644,-421.723,-376.329)">
            <path d="M3410.4,1305.19C3410.4,1303.35 3408.91,1301.86 3407.07,1301.86L3405.91,1301.86C3404.08,1301.86 3402.58,1303.35 3402.58,1305.19L3402.58,1332.34C3402.58,1334.18 3404.08,1335.67 3405.91,1335.67L3407.07,1335.67C3408.91,1335.67 3410.4,1334.18 3410.4,1332.34L3410.4,1305.19ZM3420.96,1305.19C3420.96,1303.35 3419.47,1301.86 3417.63,1301.86L3416.48,1301.86C3414.64,1301.86 3413.15,1303.35 3413.15,1305.19L3413.15,1332.34C3413.15,1334.18 3414.64,1335.67 3416.48,1335.67L3417.63,1335.67C3419.47,1335.67 3420.96,1334.18 3420.96,1332.34L3420.96,1305.19ZM3431.76,1305.19C3431.76,1303.35 3430.27,1301.86 3428.43,1301.86L3427.28,1301.86C3425.44,1301.86 3423.95,1303.35 3423.95,1305.19L3423.95,1332.34C3423.95,1334.18 3425.44,1335.67 3427.28,1335.67L3428.43,1335.67C3430.27,1335.67 3431.76,1334.18 3431.76,1332.34L3431.76,1305.19ZM3442.68,1313.75L3442.68,1332.34C3442.68,1334.18 3441.19,1335.67 3439.35,1335.67L3438.19,1335.67C3436.36,1335.67 3434.87,1334.18 3434.87,1332.34L3434.87,1305.19C3434.87,1303.35 3436.36,1301.86 3438.19,1301.86L3439.35,1301.86C3441.19,1301.86 3442.68,1303.35 3442.68,1305.19L3442.68,1307.5L3444.65,1307.5C3446.37,1307.5 3447.78,1308.9 3447.78,1310.63C3447.78,1312.35 3446.37,1313.75 3444.65,1313.75L3442.68,1313.75ZM3432.17,1298.61C3432.09,1298.93 3432.29,1299.25 3432.66,1299.39C3433.02,1299.54 3433.46,1299.47 3433.74,1299.23C3435.82,1297.42 3437.95,1294.84 3436.85,1292.49C3435.19,1288.93 3433.56,1287.35 3434.29,1284.66C3434.34,1284.49 3434.23,1284.31 3434.02,1284.23C3433.82,1284.15 3433.58,1284.2 3433.43,1284.34C3432.06,1285.68 3430.29,1288.06 3430.81,1291.11C3431.4,1294.58 3432.7,1296.37 3432.17,1298.61ZM3411.65,1298.43C3411.57,1298.75 3411.77,1299.07 3412.14,1299.21C3412.5,1299.36 3412.94,1299.29 3413.22,1299.05C3415.3,1297.24 3417.43,1294.66 3416.33,1292.31C3414.67,1288.75 3413.04,1287.16 3413.77,1284.48C3413.82,1284.31 3413.71,1284.13 3413.51,1284.05C3413.3,1283.97 3413.06,1284.02 3412.92,1284.15C3411.54,1285.5 3409.77,1287.88 3410.29,1290.93C3410.88,1294.4 3412.19,1296.19 3411.65,1298.43ZM3421.7,1296.67C3421.63,1296.99 3421.83,1297.31 3422.19,1297.45C3422.56,1297.6 3423,1297.53 3423.28,1297.29C3425.35,1295.48 3427.49,1292.9 3426.39,1290.55C3424.73,1286.99 3423.1,1285.4 3423.83,1282.72C3423.88,1282.55 3423.76,1282.37 3423.56,1282.29C3423.36,1282.21 3423.12,1282.26 3422.97,1282.39C3421.6,1283.74 3419.83,1286.12 3420.35,1289.17C3420.93,1292.64 3422.24,1294.43 3421.7,1296.67Z" style="fill:white;fill-rule:nonzero;"/>
        </g>
    </g>
</svg>
