<?xml version="1.0" encoding="UTF-8" standalone="no"?>
<!DOCTYPE svg PUBLIC "-//W3C//DTD SVG 1.1//EN" "http://www.w3.org/Graphics/SVG/1.1/DTD/svg11.dtd">
<svg width="100%" height="100%" viewBox="0 0 22 18" version="1.1" xmlns="http://www.w3.org/2000/svg" xmlns:xlink="http://www.w3.org/1999/xlink" xml:space="preserve" xmlns:serif="http://www.serif.com/" style="fill-rule:evenodd;clip-rule:evenodd;stroke-linejoin:round;stroke-miterlimit:2;">
    <g transform="matrix(1,0,0,1,-1798.43,-351.289)">
        <g transform="matrix(0.141889,0,0,0.141889,1494.54,-15.3353)">
            <path d="M2274.1,2632.03L2157.84,2632.03C2148.96,2632.03 2141.74,2639.26 2141.74,2648.13L2141.74,2693.22C2141.74,2708.97 2163.7,2708.78 2163.7,2693.22L2163.7,2687.01C2164.18,2681.89 2167.19,2679.51 2172.16,2679.24L2259.48,2679.24C2265.42,2679.31 2268.05,2682.34 2268.13,2687.65L2268.13,2693.22C2268.13,2708.48 2290.2,2709.2 2290.2,2693.22L2290.2,2648.13C2290.2,2639.26 2282.97,2632.03 2274.1,2632.03ZM2170.59,2620.71C2170.59,2620.71 2170.83,2625.58 2167.04,2625.58C2162.59,2625.58 2159.97,2625.59 2159.97,2625.59C2156.23,2625.68 2154.62,2621.83 2154.62,2620.05L2154.62,2599.99C2154.62,2591.11 2161.84,2583.89 2170.72,2583.89L2261.22,2583.89C2270.09,2583.89 2277.32,2591.11 2277.32,2599.99L2277.32,2620.05C2277.32,2621.83 2274.69,2625.64 2271.69,2625.59C2271.84,2625.57 2269.96,2625.58 2266.58,2625.54C2262.84,2625.51 2263.21,2621.2 2263.21,2621.2L2263.21,2608.37C2263.21,2605.12 2260.57,2602.48 2257.32,2602.48L2230.17,2602.48C2226.92,2602.48 2224.28,2605.12 2224.28,2608.37L2224.28,2621.27C2224.28,2621.27 2224.39,2625.61 2220.27,2625.59C2217.94,2625.58 2215.05,2625.57 2212.85,2625.56C2209,2625.53 2209.51,2621.13 2209.51,2621.13L2209.51,2608.37C2209.51,2605.12 2206.87,2602.48 2203.62,2602.48L2176.48,2602.48C2173.23,2602.48 2170.59,2605.12 2170.59,2608.37L2170.59,2620.71Z" style="fill:rgb(35,132,190);fill-rule:nonzero;"/>
        </g>
    </g>
</svg>
