<?xml version="1.0" encoding="UTF-8" standalone="no"?>
<!DOCTYPE svg PUBLIC "-//W3C//DTD SVG 1.1//EN" "http://www.w3.org/Graphics/SVG/1.1/DTD/svg11.dtd">
<svg width="100%" height="100%" class="cerradura-icon" viewBox="0 0 59 58" version="1.1" xmlns="http://www.w3.org/2000/svg" xmlns:xlink="http://www.w3.org/1999/xlink" xml:space="preserve" xmlns:serif="http://www.serif.com/" style="fill-rule:evenodd;clip-rule:evenodd;stroke-linejoin:round;stroke-miterlimit:2;">
    <g transform="matrix(1,0,0,1,-1796.35,-587.103)">
        <g transform="matrix(1.20968,0,0,1.20968,-24.7878,43.7881)">
            <g transform="matrix(0.411244,0,0,0.454096,661.995,-332.246)">
                <path d="M2168.1,1747.11C2168.1,1732.56 2155.05,1720.75 2138.99,1720.75L2080.14,1720.75C2064.08,1720.75 2051.03,1732.56 2051.03,1747.11L2051.03,1799.83C2051.03,1814.37 2064.08,1826.18 2080.14,1826.18L2138.99,1826.18C2155.05,1826.18 2168.1,1814.37 2168.1,1799.83L2168.1,1747.11Z" style="fill:rgb(35,132,190);"/>
            </g>
            <g transform="matrix(0.11449,0,0,0.11449,1470.24,127.663)">
                <path d="M540.956,3108.8L486.888,3108.8C470.145,3108.8 456.551,3095.2 456.551,3078.46C456.551,3061.72 470.145,3048.12 486.888,3048.12L547.548,3048.12L547.548,2954.43C547.548,2922.46 521.599,2896.51 489.636,2896.51C457.673,2896.51 431.724,2922.46 431.724,2954.43L431.724,3081.96C431.724,3113.92 457.673,3139.87 489.636,3139.87C511.914,3139.87 531.271,3127.26 540.956,3108.8ZM637.069,3078.84C637.069,3067.58 627.923,3058.43 616.657,3058.43L488.978,3058.43C477.712,3058.43 468.566,3067.58 468.566,3078.84C468.566,3090.11 477.712,3099.26 488.978,3099.26L616.657,3099.26C627.923,3099.26 637.069,3090.11 637.069,3078.84ZM471.73,3000.67C478.914,3000.67 484.746,3006.5 484.746,3013.68C484.746,3020.87 478.914,3026.7 471.73,3026.7C464.546,3026.7 458.714,3020.87 458.714,3013.68C458.714,3006.5 464.546,3000.67 471.73,3000.67ZM507.513,3000.67C514.697,3000.67 520.529,3006.5 520.529,3013.68C520.529,3020.87 514.697,3026.7 507.513,3026.7C500.329,3026.7 494.497,3020.87 494.497,3013.68C494.497,3006.5 500.329,3000.67 507.513,3000.67ZM471.73,2965.43C478.914,2965.43 484.746,2971.26 484.746,2978.44C484.746,2985.62 478.914,2991.46 471.73,2991.46C464.546,2991.46 458.714,2985.62 458.714,2978.44C458.714,2971.26 464.546,2965.43 471.73,2965.43ZM507.513,2965.43C514.697,2965.43 520.529,2971.26 520.529,2978.44C520.529,2985.62 514.697,2991.46 507.513,2991.46C500.329,2991.46 494.497,2985.62 494.497,2978.44C494.497,2971.26 500.329,2965.43 507.513,2965.43ZM471.73,2930.87C478.914,2930.87 484.746,2936.71 484.746,2943.89C484.746,2951.07 478.914,2956.91 471.73,2956.91C464.546,2956.91 458.714,2951.07 458.714,2943.89C458.714,2936.71 464.546,2930.87 471.73,2930.87ZM507.513,2930.87C514.697,2930.87 520.529,2936.71 520.529,2943.89C520.529,2951.07 514.697,2956.91 507.513,2956.91C500.329,2956.91 494.497,2951.07 494.497,2943.89C494.497,2936.71 500.329,2930.87 507.513,2930.87Z" style="fill:white;"/>
            </g>
        </g>
    </g>
</svg>
