<?xml version="1.0" encoding="UTF-8" standalone="no"?>
<!DOCTYPE svg PUBLIC "-//W3C//DTD SVG 1.1//EN" "http://www.w3.org/Graphics/SVG/1.1/DTD/svg11.dtd">
<svg width="100%" height="100%" class="luz-icon" viewBox="0 0 59 58" version="1.1" xmlns="http://www.w3.org/2000/svg" xmlns:xlink="http://www.w3.org/1999/xlink" xml:space="preserve" xmlns:serif="http://www.serif.com/" style="fill-rule:evenodd;clip-rule:evenodd;stroke-linejoin:round;stroke-miterlimit:2;">
    <g transform="matrix(1,0,0,1,-1793.86,-521.416)">
        <g transform="matrix(1.20968,0,0,1.20968,-26.8761,44.2232)">
            <g transform="matrix(0.411244,0,0,0.454096,661.667,-386.907)">
                <path d="M2168.1,1747.11C2168.1,1732.56 2155.05,1720.75 2138.99,1720.75L2080.14,1720.75C2064.08,1720.75 2051.03,1732.56 2051.03,1747.11L2051.03,1799.83C2051.03,1814.37 2064.08,1826.18 2080.14,1826.18L2138.99,1826.18C2155.05,1826.18 2168.1,1814.37 2168.1,1799.83L2168.1,1747.11Z" style="fill:rgb(35,132,190);"/>
            </g>
            <g id="XMLID_49_" transform="matrix(0.220782,0,0,-0.220782,1093.95,721.655)">
                <path d="M1984.01,1416.01C1984.08,1418.24 1982.78,1420.12 1982.77,1421.28C1982.73,1423.3 1983.98,1423.95 1984.01,1426.24C1984.01,1428.86 1982.09,1431.04 1979.58,1431.41L1978.77,1434.4C1978.33,1436.02 1976.87,1437.16 1975.18,1437.16L1967.14,1437.16C1965.45,1437.16 1963.99,1436.02 1963.55,1434.4L1962.76,1431.41C1960.23,1431.02 1958.31,1428.86 1958.31,1426.22C1958.28,1423.69 1959.58,1423.31 1959.5,1421.27C1959.44,1419.84 1958.27,1419.19 1958.31,1415.99C1958.31,1414.23 1959.72,1412.81 1961.49,1412.81L1980.84,1412.81C1982.6,1412.84 1984.01,1414.25 1984.01,1416.01ZM2008.37,1398.79C2006.17,1396.6 2002.65,1396.6 2000.45,1398.79C1998.25,1400.99 1998.25,1404.51 2000.45,1406.71L2011.55,1417.81C2012.63,1418.89 2014.08,1419.43 2015.49,1419.43C2016.9,1419.43 2018.35,1418.89 2019.43,1417.81C2021.63,1415.62 2021.63,1412.09 2019.43,1409.9L2008.37,1398.79ZM1933.72,1398.42L1922.53,1409.61C1920.33,1411.81 1920.33,1415.33 1922.53,1417.53C1923.61,1418.61 1925.06,1419.15 1926.47,1419.15C1927.88,1419.15 1929.33,1418.61 1930.41,1417.53L1941.6,1406.34C1943.79,1404.14 1943.79,1400.62 1941.6,1398.42C1939.44,1396.23 1935.88,1396.23 1933.72,1398.42ZM1998.91,1369.45C1998.91,1376.94 1995.94,1383.73 1991.12,1388.71C1987.46,1392.51 1985.1,1397.36 1984.31,1402.52C1983.96,1404.75 1982.04,1406.39 1979.77,1406.39L1962.55,1406.39C1960.3,1406.39 1958.36,1404.77 1958.03,1402.55C1957.22,1397.38 1954.83,1392.47 1951.17,1388.69C1946.44,1383.78 1943.5,1377.1 1943.43,1369.76C1943.27,1354.32 1955.55,1341.83 1970.99,1341.71C1986.4,1341.6 1998.91,1354.07 1998.91,1369.45ZM1930.27,1369.46C1930.27,1366.39 1927.78,1363.86 1924.67,1363.86L1909.63,1363.86C1906.56,1363.86 1904.04,1366.35 1904.04,1369.46C1904.04,1372.52 1906.52,1375.05 1909.63,1375.05L1924.67,1375.05C1927.78,1375.05 1930.27,1372.57 1930.27,1369.46ZM2033.35,1363.72L2018.26,1363.72C2015.19,1363.72 2012.66,1366.21 2012.66,1369.32C2012.66,1372.38 2015.15,1374.91 2018.26,1374.91L2033.35,1374.91C2036.42,1374.91 2038.95,1372.42 2038.95,1369.32C2038.95,1366.25 2036.46,1363.72 2033.35,1363.72ZM2004.1,1342.31C2005.51,1342.31 2006.96,1341.77 2008.04,1340.7L2019.25,1329.49C2021.44,1327.29 2021.44,1323.77 2019.25,1321.57C2017.05,1319.37 2013.53,1319.37 2011.33,1321.57L2000.12,1332.78C1997.92,1334.98 1997.92,1338.5 2000.12,1340.7C2001.24,1341.77 2002.65,1342.31 2004.1,1342.31ZM1934.07,1339.98C1935.15,1341.05 1936.6,1341.59 1938.01,1341.59C1939.42,1341.59 1940.87,1341.05 1941.95,1339.98C1944.14,1337.78 1944.14,1334.26 1941.95,1332.06L1930.87,1320.98C1928.67,1318.79 1925.15,1318.79 1922.95,1320.98C1920.76,1323.18 1920.76,1326.7 1922.95,1328.9L1934.07,1339.98ZM1971.38,1328.21C1974.44,1328.21 1976.97,1325.73 1976.97,1322.62L1976.97,1307.72C1976.97,1304.65 1974.49,1302.12 1971.38,1302.12C1968.27,1302.12 1965.78,1304.61 1965.78,1307.72L1965.78,1322.62C1965.78,1325.73 1968.31,1328.21 1971.38,1328.21Z" style="fill:white;fill-rule:nonzero;"/>
            </g>
        </g>
    </g>
</svg>
