<?xml version="1.0" encoding="UTF-8" standalone="no"?>
<!DOCTYPE svg PUBLIC "-//W3C//DTD SVG 1.1//EN" "http://www.w3.org/Graphics/SVG/1.1/DTD/svg11.dtd">
<svg width="100%" height="100%" viewBox="0 0 22 21" version="1.1" xmlns="http://www.w3.org/2000/svg" xmlns:xlink="http://www.w3.org/1999/xlink" xml:space="preserve" xmlns:serif="http://www.serif.com/" style="fill-rule:evenodd;clip-rule:evenodd;stroke-linejoin:round;stroke-miterlimit:2;">
    <g transform="matrix(1,0,0,1,-2117.92,-226.353)">
        <g transform="matrix(1.26664,0,0,1.26664,1108.09,-2535.99)">
            <g transform="matrix(0.443961,0,0,0.84777,470.635,338.676)">
                <path d="M773.067,2174.89C773.067,2173.83 771.418,2172.97 769.387,2172.97L739.358,2172.97C737.327,2172.97 735.678,2173.83 735.678,2174.89C735.678,2175.96 737.327,2176.82 739.358,2176.82L769.387,2176.82C771.418,2176.82 773.067,2175.96 773.067,2174.89Z" style="fill:rgb(55,83,98);"/>
            </g>
            <g transform="matrix(0.443961,0,0,0.84777,470.635,345.366)">
                <path d="M773.067,2174.89C773.067,2173.83 771.418,2172.97 769.387,2172.97L739.358,2172.97C737.327,2172.97 735.678,2173.83 735.678,2174.89C735.678,2175.96 737.327,2176.82 739.358,2176.82L769.387,2176.82C771.418,2176.82 773.067,2175.96 773.067,2174.89Z" style="fill:rgb(55,83,98);"/>
            </g>
            <g transform="matrix(0.443961,0,0,0.84777,470.635,351.815)">
                <path d="M773.067,2174.89C773.067,2173.83 771.418,2172.97 769.387,2172.97L739.358,2172.97C737.327,2172.97 735.678,2173.83 735.678,2174.89C735.678,2175.96 737.327,2176.82 739.358,2176.82L769.387,2176.82C771.418,2176.82 773.067,2175.96 773.067,2174.89Z" style="fill:rgb(55,83,98);"/>
            </g>
        </g>
    </g>
</svg>
